<?xml version="1.0" encoding="UTF-8" standalone="no"?>
<!DOCTYPE svg PUBLIC "-//W3C//DTD SVG 1.1//EN" "http://www.w3.org/Graphics/SVG/1.1/DTD/svg11.dtd">
<svg xmlns="http://www.w3.org/2000/svg" xmlns:xlink="http://www.w3.org/1999/xlink" version="1.1" width="283.465pt" height="283.465pt" viewBox="0 0 283.465 283.465">
<g enable-background="new">
<g>
<g id="Layer-1" data-name="Obecne">
<path transform="matrix(1,0,0,-1,0,283.465)" stroke-width="2.83464" stroke-linecap="round" stroke-linejoin="round" fill="none" stroke="#000000" d="M 56.69292 141.7323 L 226.77167 141.7323 M 56.69292 198.4252 L 226.77167 198.4252 "/>
<path transform="matrix(1,0,0,-1,0,283.465)" stroke-width="2.83464" stroke-linecap="round" stroke-linejoin="round" fill="none" stroke="#000000" d="M 83.96596 119.39902 C 80.64496 122.72002 75.26056 122.72002 71.93958 119.39902 M 71.93958 119.39902 C 68.61858 116.07803 68.61858 110.69363 71.93958 107.37263 M 71.93958 107.37263 C 75.26056 104.05165 80.64496 104.05165 83.96596 107.37263 "/>
<path transform="matrix(1,0,0,-1,0,283.465)" stroke-width="2.83464" stroke-linecap="round" stroke-linejoin="round" fill="none" stroke="#000000" d="M 128.97638 113.38583 C 128.97638 118.08243 125.16904 121.88977 120.47244 121.88977 M 120.47244 121.88977 C 115.77585 121.88977 111.96851 118.08243 111.96851 113.38583 M 111.96851 113.38583 C 111.96851 108.68924 115.77585 104.8819 120.47244 104.8819 M 120.47244 104.8819 C 125.16904 104.8819 128.97638 108.68924 128.97638 113.38583 "/>
<path transform="matrix(1,0,0,-1,0,283.465)" stroke-width="2.83464" stroke-linecap="round" stroke-linejoin="round" fill="none" stroke="#000000" d="M 210.86429 121.60001 C 206.32773 122.81557 201.6647 120.12337 200.44913 115.58681 M 200.44913 115.58681 C 199.23355 111.05025 201.92575 106.38722 206.46231 105.17166 M 206.46231 105.17166 C 207.9042 104.78531 209.4224 104.78531 210.86429 105.17166 "/>
<path transform="matrix(1,0,0,-1,0,283.465)" stroke-width="2.83464" stroke-linecap="round" stroke-linejoin="round" fill="none" stroke="#000000" d="M 200.15937 113.38583 L 210.08063 113.38583 M 158.0315 104.8819 L 158.0315 121.88977 "/>
<path transform="matrix(1,0,0,-1,0,283.465)" stroke-width="2.83464" stroke-linecap="round" stroke-linejoin="round" fill="none" stroke="#000000" d="M 163.7008 113.38583 C 166.0491 113.38583 167.95276 115.28951 167.95276 117.6378 M 167.95276 117.6378 C 167.95276 119.9861 166.0491 121.88977 163.7008 121.88977 "/>
<path transform="matrix(1,0,0,-1,0,283.465)" stroke-width="2.83464" stroke-linecap="round" stroke-linejoin="round" fill="none" stroke="#000000" d="M 163.7008 121.88977 L 158.0315 121.88977 M 163.7008 113.38583 L 158.0315 113.38583 M 163.7008 113.38583 L 167.95276 104.8819 M 76.53543 170.07874 L 184.25199 170.07874 M 76.53543 226.77167 L 184.25199 226.77167 "/>
<path transform="matrix(1,0,0,-1,0,283.465)" stroke-width="2.83464" stroke-linecap="round" stroke-linejoin="round" fill="none" stroke="#000000" d="M 214.01575 170.07874 C 214.01575 174.77533 210.2084 178.58267 205.51181 178.58267 M 205.51181 178.58267 C 200.81522 178.58267 197.00788 174.77533 197.00788 170.07874 M 197.00788 170.07874 C 197.00788 165.38214 200.81522 161.5748 205.51181 161.5748 M 205.51181 161.5748 C 210.2084 161.5748 214.01575 165.38214 214.01575 170.07874 "/>
<path transform="matrix(1,0,0,-1,0,283.465)" stroke-width="2.83464" stroke-linecap="round" stroke-linejoin="round" fill="none" stroke="#000000" d="M 214.01575 226.77167 C 214.01575 231.46826 210.2084 235.2756 205.51181 235.2756 M 205.51181 235.2756 C 200.81522 235.2756 197.00788 231.46826 197.00788 226.77167 M 197.00788 226.77167 C 197.00788 222.07508 200.81522 218.26773 205.51181 218.26773 M 205.51181 218.26773 C 210.2084 218.26773 214.01575 222.07508 214.01575 226.77167 "/>
<path transform="matrix(1,0,0,-1,0,283.465)" stroke-width="5.6693" stroke-linecap="round" stroke-linejoin="round" fill="none" stroke="#000000" d="M 70.86615 85.03937 L 212.59842 85.03937 M 56.69292 240.94489 L 56.69292 99.2126 M 226.77167 99.2126 L 226.77167 240.94489 M 212.59842 255.1181 L 70.86615 255.1181 M 141.7323 85.03937 L 141.7323 51.02362 M 70.86615 42.51968 L 133.22837 42.51968 M 150.23624 42.51968 L 212.59842 42.51968 "/>
<path transform="matrix(1,0,0,-1,0,283.465)" stroke-width="5.6693" stroke-linecap="round" stroke-linejoin="round" fill="none" stroke="#000000" d="M 56.69292 99.2126 C 56.69292 91.38495 63.03848 85.03937 70.86615 85.03937 "/>
<path transform="matrix(1,0,0,-1,0,283.465)" stroke-width="5.6693" stroke-linecap="round" stroke-linejoin="round" fill="none" stroke="#000000" d="M 212.59842 85.03937 C 220.42609 85.03937 226.77167 91.38495 226.77167 99.2126 "/>
<path transform="matrix(1,0,0,-1,0,283.465)" stroke-width="5.6693" stroke-linecap="round" stroke-linejoin="round" fill="none" stroke="#000000" d="M 70.86615 255.1181 C 63.03848 255.1181 56.69292 248.77256 56.69292 240.94489 "/>
<path transform="matrix(1,0,0,-1,0,283.465)" stroke-width="5.6693" stroke-linecap="round" stroke-linejoin="round" fill="none" stroke="#000000" d="M 226.77167 240.94489 C 226.77167 248.77256 220.42609 255.1181 212.59842 255.1181 "/>
<path transform="matrix(1,0,0,-1,0,283.465)" stroke-width="5.6693" stroke-linecap="round" stroke-linejoin="round" fill="none" stroke="#000000" d="M 150.23624 42.51968 C 150.23624 47.21628 146.4289 51.02362 141.7323 51.02362 M 141.7323 51.02362 C 137.0357 51.02362 133.22837 47.21628 133.22837 42.51968 M 133.22837 42.51968 C 133.22837 37.82309 137.0357 34.01575 141.7323 34.01575 M 141.7323 34.01575 C 146.4289 34.01575 150.23624 37.82309 150.23624 42.51968 "/>
</g>
</g>
</g>
</svg>
